HIERARCHY
ROOT Hips
{
	OFFSET -14.64140 90.27770 -84.91600
	CHANNELS 6 Xposition Yposition Zposition Zrotation Xrotation Yrotation
	JOINT Spine
	{
		OFFSET 0.00000 13.20850 -1.60436
		CHANNELS 3 Zrotation Xrotation Yrotation
		JOINT Spine1
		{
			OFFSET 0.00000 8.61716 0.00000
			CHANNELS 3 Zrotation Xrotation Yrotation
			JOINT Spine2
			{
				OFFSET 0.00000 8.61717 0.00000
				CHANNELS 3 Zrotation Xrotation Yrotation
				JOINT Spine3
				{
					OFFSET 0.00000 8.61717 0.00000
					CHANNELS 3 Zrotation Xrotation Yrotation
					JOINT Neck
					{
						OFFSET 0.00000 11.07920 1.10792
						CHANNELS 3 Zrotation Xrotation Yrotation
						JOINT Neck1
						{
							OFFSET 0.00000 7.08032 0.00000
							CHANNELS 3 Zrotation Xrotation Yrotation
							JOINT Head
							{
								OFFSET 0.00000 7.08031 0.00000
								CHANNELS 3 Zrotation Xrotation Yrotation
								End site
								{
									OFFSET 0.00000 0.00000 0.00000
								}
							}
						}
					}
					JOINT RightShoulder
					{
						OFFSET -0.01000 7.91373 5.19711
						CHANNELS 3 Zrotation Xrotation Yrotation
						JOINT RightArm
						{
							OFFSET -18.41580 0.00000 0.00000
							CHANNELS 3 Zrotation Xrotation Yrotation
							JOINT RightForeArm
							{
								OFFSET -29.11090 0.00000 0.00000
								CHANNELS 3 Zrotation Xrotation Yrotation
								JOINT RightHand
								{
									OFFSET -24.65040 0.00000 0.00000
									CHANNELS 3 Zrotation Xrotation Yrotation
									JOINT RightHandThumb1
									{
										OFFSET -5.35114 -0.85590 3.97906
										CHANNELS 3 Zrotation Xrotation Yrotation
										JOINT RightHandThumb2
										{
											OFFSET -4.52789 0.00000 0.00000
											CHANNELS 3 Zrotation Xrotation Yrotation
											JOINT RightHandThumb3
											{
												OFFSET -2.46976 0.00000 0.00000
												CHANNELS 3 Zrotation Xrotation Yrotation
												End site
												{
													OFFSET 0.00000 0.00000 0.00000
												}
											}
										}
									}
									JOINT RightHandIndex1
									{
										OFFSET -14.26970 0.00000 2.88139
										CHANNELS 3 Zrotation Xrotation Yrotation
										JOINT RightHandIndex2
										{
											OFFSET -5.48836 0.00000 0.00000
											CHANNELS 3 Zrotation Xrotation Yrotation
											JOINT RightHandIndex3
											{
												OFFSET -3.01859 0.00000 0.00000
												CHANNELS 3 Zrotation Xrotation Yrotation
												End site
												{
													OFFSET 0.00000 0.00000 0.00000
												}
											}
										}
									}
									JOINT RightHandMiddle1
									{
										OFFSET -14.26970 0.00000 -0.09147
										CHANNELS 3 Zrotation Xrotation Yrotation
										JOINT RightHandMiddle2
										{
											OFFSET -6.17441 0.00000 0.00000
											CHANNELS 3 Zrotation Xrotation Yrotation
											JOINT RightHandMiddle3
											{
												OFFSET -3.56743 0.00000 0.00000
												CHANNELS 3 Zrotation Xrotation Yrotation
												End site
												{
													OFFSET 0.00000 0.00000 0.00000
												}
											}
										}
									}
									JOINT RightHandRing1
									{
										OFFSET -12.69180 0.00000 -3.06433
										CHANNELS 3 Zrotation Xrotation Yrotation
										JOINT RightHandRing2
										{
											OFFSET -5.62556 0.00000 0.00000
											CHANNELS 3 Zrotation Xrotation Yrotation
											JOINT RightHandRing3
											{
												OFFSET -3.56744 0.00000 0.00000
												CHANNELS 3 Zrotation Xrotation Yrotation
												End site
												{
													OFFSET 0.00000 0.00000 0.00000
												}
											}
										}
									}
									JOINT RightHandPinky1
									{
										OFFSET -11.11390 0.00000 -6.03719
										CHANNELS 3 Zrotation Xrotation Yrotation
										JOINT RightHandPinky2
										{
											OFFSET -4.52789 0.00000 0.00000
											CHANNELS 3 Zrotation Xrotation Yrotation
											JOINT RightHandPinky3
											{
												OFFSET -2.46976 0.00000 0.00000
												CHANNELS 3 Zrotation Xrotation Yrotation
												End site
												{
													OFFSET 0.00000 0.00000 0.00000
												}
											}
										}
									}
								}
							}
						}
					}
					JOINT LeftShoulder
					{
						OFFSET 0.01000 7.91373 5.19711
						CHANNELS 3 Zrotation Xrotation Yrotation
						JOINT LeftArm
						{
							OFFSET 18.41580 0.00000 0.00000
							CHANNELS 3 Zrotation Xrotation Yrotation
							JOINT LeftForeArm
							{
								OFFSET 29.11090 0.00000 0.00000
								CHANNELS 3 Zrotation Xrotation Yrotation
								JOINT LeftHand
								{
									OFFSET 24.65040 0.00000 0.00000
									CHANNELS 3 Zrotation Xrotation Yrotation
									JOINT LeftHandThumb1
									{
										OFFSET 5.35114 -0.85590 3.97906
										CHANNELS 3 Zrotation Xrotation Yrotation
										JOINT LeftHandThumb2
										{
											OFFSET 4.52789 0.00000 0.00000
											CHANNELS 3 Zrotation Xrotation Yrotation
											JOINT LeftHandThumb3
											{
												OFFSET 2.46977 0.00000 0.00000
												CHANNELS 3 Zrotation Xrotation Yrotation
												End site
												{
													OFFSET 0.00000 0.00000 0.00000
												}
											}
										}
									}
									JOINT LeftHandIndex1
									{
										OFFSET 14.26970 0.00000 2.88139
										CHANNELS 3 Zrotation Xrotation Yrotation
										JOINT LeftHandIndex2
										{
											OFFSET 5.48836 0.00000 0.00000
											CHANNELS 3 Zrotation Xrotation Yrotation
											JOINT LeftHandIndex3
											{
												OFFSET 3.01859 0.00000 0.00000
												CHANNELS 3 Zrotation Xrotation Yrotation
												End site
												{
													OFFSET 0.00000 0.00000 0.00000
												}
											}
										}
									}
									JOINT LeftHandMiddle1
									{
										OFFSET 14.26970 0.00000 -0.09147
										CHANNELS 3 Zrotation Xrotation Yrotation
										JOINT LeftHandMiddle2
										{
											OFFSET 6.17440 0.00000 0.00000
											CHANNELS 3 Zrotation Xrotation Yrotation
											JOINT LeftHandMiddle3
											{
												OFFSET 3.56744 0.00000 0.00000
												CHANNELS 3 Zrotation Xrotation Yrotation
												End site
												{
													OFFSET 0.00000 0.00000 0.00000
												}
											}
										}
									}
									JOINT LeftHandRing1
									{
										OFFSET 12.69180 0.00000 -3.06433
										CHANNELS 3 Zrotation Xrotation Yrotation
										JOINT LeftHandRing2
										{
											OFFSET 5.62556 0.00000 0.00000
											CHANNELS 3 Zrotation Xrotation Yrotation
											JOINT LeftHandRing3
											{
												OFFSET 3.56744 0.00000 0.00000
												CHANNELS 3 Zrotation Xrotation Yrotation
												End site
												{
													OFFSET 0.00000 0.00000 0.00000
												}
											}
										}
									}
									JOINT LeftHandPinky1
									{
										OFFSET 11.11390 0.00000 -6.03719
										CHANNELS 3 Zrotation Xrotation Yrotation
										JOINT LeftHandPinky2
										{
											OFFSET 4.52789 0.00000 0.00000
											CHANNELS 3 Zrotation Xrotation Yrotation
											JOINT LeftHandPinky3
											{
												OFFSET 2.46976 0.00000 0.00000
												CHANNELS 3 Zrotation Xrotation Yrotation
												End site
												{
													OFFSET 0.00000 0.00000 0.00000
												}
											}
										}
									}
								}
							}
						}
					}
					JOINT pCube4
					{
						OFFSET 0.00000 10.91090 1.10792
						CHANNELS 3 Zrotation Xrotation Yrotation
						End site
						{
							OFFSET 0.00000 0.00000 0.00000
						}
					}
				}
			}
		}
	}
	JOINT RightUpLeg
	{
		OFFSET -9.98441 0.00000 0.00000
		CHANNELS 3 Zrotation Xrotation Yrotation
		JOINT RightLeg
		{
			OFFSET 0.00000 -42.11790 0.00000
			CHANNELS 3 Zrotation Xrotation Yrotation
			JOINT RightFoot
			{
				OFFSET 0.00000 -45.00020 -0.00001
				CHANNELS 3 Zrotation Xrotation Yrotation
				JOINT RightForeFoot
				{
					OFFSET 0.00000 -3.74820 0.00000
					CHANNELS 3 Zrotation Xrotation Yrotation
					JOINT RightToeBase
					{
						OFFSET 0.00000 0.06325 14.43120
						CHANNELS 3 Zrotation Xrotation Yrotation
						End site
						{
							OFFSET 0.00000 0.00000 0.00000
						}
					}
				}
			}
		}
	}
	JOINT LeftUpLeg
	{
		OFFSET 9.98441 0.00000 0.00000
		CHANNELS 3 Zrotation Xrotation Yrotation
		JOINT LeftLeg
		{
			OFFSET 0.00000 -42.11800 0.00000
			CHANNELS 3 Zrotation Xrotation Yrotation
			JOINT LeftFoot
			{
				OFFSET 0.00000 -45.00070 0.00000
				CHANNELS 3 Zrotation Xrotation Yrotation
				JOINT LeftForeFoot
				{
					OFFSET 0.00000 -3.74824 0.00000
					CHANNELS 3 Zrotation Xrotation Yrotation
					JOINT LeftToeBase
					{
						OFFSET 0.00000 0.06325 14.43110
						CHANNELS 3 Zrotation Xrotation Yrotation
						End site
						{
							OFFSET 0.00000 0.00000 0.00000
						}
					}
				}
			}
		}
	}
}
MOTION
Frames: 4
Frame Time: 0.050000
0.03049849974907184 -0.029635585479954252 -0.025886196435875475 0.02789738399247344 0.003994153233809592 -0.03277994297567538 -1.9209711721099207 1.780149545011112 -0.9348072684556323 -1.012259742784096 3.941585167501328 0.37974078476749473 -1.158993901311877 -1.4389474197429013 -1.237625757734376 0.7330244542773962 0.613269263502316 -0.857735961817967 0.18420712511253134 12.248391066668361 -1.5664864682847228 -0.08771784884018666 -1.121288967947589 -5.302197547779678 0.45007755005003103 -16.94733327746132 -0.46385081719862903 -4.133869423532671 1.4456878829046815 -14.955174529930042 71.06195113304125 27.35178029835383 3.6730180918519855 -0.9143737540213486 5.3661478437316 39.384832023379936 22.833068228936277 -0.17829879400184984 -5.459826517644355 4.494859548443513 -0.17053542536561786 -1.5477874008117134 -0.0088440685197937 0.021982113251091867 -56.20161921853236 -0.04784416346948229 -0.04959191045875843 -56.19474240209378 -38.76632850879658 0.04174989043216816 0.04125139750326807 0.01689445726651906 0.02965810609098856 -0.04803736651142757 0.012173121632960816 -0.03086138656108461 -0.01913206344070032 -36.69584804364288 -0.019137803901384795 -0.006429191656164091 0.015798088293584006 0.025569941694876874 0.026560121287877107 -0.04909782878761084 0.049908072424730325 0.04218640098522259 -19.749606451918403 -0.03559524371262791 -0.009063606604095085 -0.0120416991160906 0.012759521594871637 0.020473256371645217 -0.0490709101678603 0.03707660842490738 -0.03348590997555048 24.101967668870667 -0.04982618420215243 0.00957948899098302 28.83248279305989 0.019316170875995988 -0.030425441749232403 28.859979712078406 0.048704804823954465 0.02235674672685904 4.8924619065072426 1.2349847664252773 13.035118849847116 -68.13392917045778 30.179797958613502 -9.168280285633122 -0.22597294940472937 -2.364981221986383 -55.272850063994284 -18.988993683551683 -7.683358883381943 7.85315017949291 -0.49025860593577486 0.08461829819874393 -8.15775852109652 0.04429695395586345 0.035392055126844714 44.608273846620136 -0.026174045248077298 -0.009218881516182047 44.528422693701884 12.468319010593385 0.0017145966238159456 -0.010551800749805976 -0.008238911812018497 -0.023264285633116083 0.019045426627247383 -0.04371832721292919 -0.0012392122066827048 -0.01007360482990706 11.071274092855461 0.04859208960068355 -0.0019413561586377587 -0.045933991735829086 0.01602562435039543 0.000504025332430638 0.031518040778443106 -0.02281965863354698 -0.002399955320393155 4.792603369195753 0.043175326287168005 -0.015462172407717738 -0.007752117470514554 0.04497268937286242 0.027221599296172325 0.0011585803116182 -0.0487346728828808 0.0171527930644317 -5.573273543296193 0.049921945363824806 0.021900262233480065 -6.680252123593328 -0.003062076861713118 -0.017708116753486727 -6.710139086119469 -0.02215440987367646 0.041529895148418094 0.017312386064208374 -0.0002251765671389593 0.01821886833290724 8.01808968281449 3.501502635611491 -19.23358863978206 0.03778740628207223 10.397653524702658 -0.0014472301765478847 -5.62987990135048 -15.674864353785644 3.1576863334216245 -0.013175816511278512 -0.0006089047535511192 -0.00913272220414917 0.022255456936540068 4.684404239693127 0.009933460143693465 12.427806099529667 -8.271675184221298 6.881491971103517 0.02707221869924383 46.340794642252796 -0.03452087910171659 -4.3248065705872065 -14.791126071485385 -3.816185065146348 -0.021946531588490092 0.01838221109791599 -0.011909089200154065 0.04599180313243736 -10.699041147749115 0.007855335877880128 
-0.003970698020615344 0.024538627867314134 -0.009947207848592632 0.02745683302547221 0.0022090073388349248 -0.03031036521966293 -1.8631475456908335 1.7711875739244922 -0.909074784060459 -1.035766312286889 3.9018786387457953 0.4148393273745975 -1.1205354996585448 -1.4239990395474873 -1.2107476175227638 0.7877743735517668 0.6322554040382414 -0.8088607426705565 0.15187607197877193 12.219513689740737 -1.4696039749593144 -0.10368881193665504 -1.0474509563147962 -5.0208654876381065 0.4954308032993718 -16.739781797249915 -0.4207904268686059 -4.034921845705116 1.384756146420895 -15.002344087796796 70.7295839959925 26.75180294705768 2.9479606633368793 -0.7920580278896452 4.812140689575918 39.47424993623497 22.55462584126322 -0.12378696913961373 -5.356120116511429 4.502283359219474 -0.140702326307393 -1.6218828722887053 0.03949243648819974 -0.001302726659944109 -56.200270445289476 0.04822249844453999 0.014726453990551594 -56.274498709640824 -38.76347455887874 -0.00542669331994858 -0.017943989026922447 -0.040033522839964 -0.03703609069310235 -0.012089568614218999 0.023425458496985848 -0.010105006937715367 -0.01838659209908433 -36.65595289188908 0.02009374954632899 -0.04594604885138717 0.02208610949147893 0.04335823967888036 0.007787260667538441 0.007956325089765282 -0.04137744322275695 0.024439530142773166 -19.72158010255144 -0.04838715965948634 0.031270986730265085 0.03549706706232798 -0.024893025052234903 -0.006952804868727333 -0.005058546495577713 0.033153626232241426 -0.014076598776723003 24.07893709115888 -0.007516480891652809 0.02333195517797735 28.870329443256196 -0.009754033294345722 -0.04497264355393915 28.877158479451545 -0.019838628635161313 0.0034010718054106174 4.694701135419817 1.1809733032892598 13.035973970995487 -68.14492018220076 30.386317926229736 -8.465654837211671 2.523197947138295 -4.703086762175856 -53.87062703257011 -18.3262201637384 -6.471376735375499 7.033946343374369 -0.47641887588413856 0.1049749964743262 -8.168740222347306 0.04903834037835512 -0.00846288120678615 44.56935129440492 -0.03619638356505067 0.015919568753982254 44.59314905541708 12.508334825977329 0.019550911723570225 -0.04912129243752476 0.0053411104626385495 -0.028632896406775313 0.010148380688599919 -0.043366471995907985 0.019727690159204746 -0.011653016972742238 11.134484259746266 0.02267277424765153 -0.04110907751477406 -0.018629330884920157 -0.03535753586208466 -0.015040462520938712 0.03964927254202355 0.01751981071473268 -0.004623479131556583 4.74815982676203 0.005906709686292138 -0.0329100752154507 -0.045854020653896134 -0.0033012241707334657 0.001149825824641769 0.011282323545004648 -0.04299866212758657 0.04690381996403225 -5.631442218188998 -0.043495018185906745 -0.02458302290532957 -6.739777440667459 0.0397413870153476 -0.010586220360013169 -6.733623715637983 0.007294466542649256 -0.029350126890072825 -0.032632004126940416 0.008956158057953145 0.03900913470410608 8.037634004980754 3.501427275338118 -19.22059941245646 -0.04370296391218769 10.366711031996989 0.0029938763955770255 -5.592053241621916 -15.669983197775009 3.1568003768586115 -0.03668047839886445 0.008594382415954907 0.023403900238543336 0.01923847187510762 4.653357098101959 -0.03648610359311538 12.475861247678571 -8.226619980928405 6.888157005523614 0.007222423451322862 46.40637213207271 0.04065183645080049 -4.311020411705443 -14.790029026179862 -3.839148526898799 0.03607476509022171 -0.04383990701401675 -0.02610986185683605 0.04519895292711304 -10.7177834085436 -0.04446288866292031 
0.029625999939741018 0.024345787351976178 -0.02185739617521425 -0.024365188287616912 0.009840352737850246 -0.04742474105561226 -1.7949973791593354 1.64465770440123 -0.8863208273827612 -1.0225232846219705 3.9449815058396007 0.41044462302575707 -1.1056912785847584 -1.441822549795092 -1.1539114196145133 0.72831045031109 0.542621136451215 -0.8169976395142599 0.18740616072577887 12.094837686757218 -1.5256146666860806 -0.06831399188232927 -0.992413441939745 -5.0862609155149805 0.4702618228712451 -16.584789515161876 -0.4265803674053286 -3.889034151793601 1.3878546414067296 -15.149188286111492 70.85113046033433 26.426362683963713 2.3099713818574354 -0.8320460624373234 4.408678315557238 39.357084237226445 22.301236059774833 -0.13267753320672043 -5.1204943078319065 4.488223849189441 -0.1594888804304621 -1.5661123594633064 0.03261059663205063 0.004367211349679865 -56.20459552500546 0.040288677581236304 -0.036323236728587206 -56.283921949695895 -38.71974709839659 0.037082721588367173 0.037627955403079276 0.008623772066992875 -0.039357846706290785 0.04783712876928485 0.0025816444973284928 -0.03375716578379327 -0.029745943843618217 -36.64886368660172 0.04038327194734347 0.015466024121587747 0.0496340749551109 0.025351487599014115 -0.014725443762170238 -0.03405027468088509 0.018394020916914434 0.007485934775652436 -19.751504431517745 0.03338245826401279 -0.030408239686680435 -0.041705825868579544 -0.027227543381137934 -0.00226763795395815 -0.01967961162231144 0.02478656282876989 0.004937538924738602 24.023958027777734 -0.04095363808866723 -0.022954952171378672 28.860333709642056 -0.03960690844806491 -0.014061390890319414 28.86173627955721 -0.01495454648112754 0.0488363287543109 4.506381736465871 1.1832400169187935 13.095368889393196 -68.61076887140135 30.372919960180607 -7.271002414575371 3.878109989862686 -5.674196124225047 -51.52543169558363 -17.951355085557832 -5.2414584487582845 6.121618159876988 -0.45874027127558653 0.0801403498694002 -8.11864464011124 0.0481140649346669 -0.0013123074335652074 44.601508536923994 0.041664951403572924 0.024623843163045438 44.61137853703862 12.42633488950116 -0.03605408980300371 -0.049232146581005595 -0.03882364393909929 -0.0425577910722941 -0.021130037492514294 -0.003187062431872578 -0.00533535488115409 0.04251584659655001 11.114445266359875 0.03675749624610568 0.007323990956183162 0.04805298088464116 0.044311173758897184 -0.0331155809487797 -0.035033293657815615 0.046662570330879685 0.034811445414524966 4.795999082502008 0.02349056698447221 -0.019962298445449073 0.01098774231209861 0.02252355244815308 0.013437940669444802 -0.04478866647985859 -0.024647902632668185 -0.03349148124663108 -5.614131465314091 0.03756884814894392 -0.023487708905207835 -6.7575981491068955 0.013974089853853962 0.031403421791470924 -6.725664146869864 0.04672212581783076 0.02901892721768494 -0.04878408572040979 0.013196713132955184 -0.03183895337089806 8.05816222392136 3.5224022702674933 -19.217236672428836 -0.007122419257456337 10.420418247028515 0.05723329052264599 -5.665524018957477 -15.629162201315463 3.1650522947018342 -0.01928360890355223 0.020905607659852696 -0.03860563602248526 0.019413247922494554 4.699330951662784 0.03948502386067916 12.493664671900358 -8.266734674704407 6.889191559447 -0.032065181332743574 46.42167069354548 -0.011834983167099931 -4.363711196458428 -14.744046448681217 -3.856095142744586 -0.014232022756090914 0.032612961972968854 0.0007655621446324629 0.03628156626346328 -10.785537186210624 -0.033209049511202085 
0.002567333793594647 0.006584296707454283 0.024792151938576007 0.010482566610277641 0.03771788641343776 0.009526692501566743 -1.8417278743813796 1.6039038204477394 -0.9227008096921331 -0.9917645991619359 3.938834688449113 0.3695297924983566 -1.1821429073460912 -1.415013250625672 -1.1042719062298485 0.7458818878145601 0.6112132130586109 -0.8325760396668935 0.22772926724164305 11.946709420154972 -1.6016449435891085 -0.10211207174640478 -1.0435590529451646 -5.3101814150134405 0.5534783996349187 -16.55596382101842 -0.3954298848272159 -3.8275798403222945 1.3669537014123054 -15.183783328305598 71.17873541430265 26.38044018337091 1.9239698371265317 -1.0392291343539448 4.093698139445712 39.48111268891065 22.020008003706614 -0.0971346966713615 -4.958502871906999 4.508547895424093 -0.14083387146685683 -1.5918403005795203 0.012992556441043511 0.01487442079174219 -56.21518915551159 0.04255174556136581 0.02360618301755675 -56.21473082624835 -38.75974333519485 0.023214552031146064 0.028947860434297985 -0.009544581100684646 0.014661364426502685 0.014241027545207072 0.017262517445713256 -0.019435663675034985 0.025687353505353644 -36.68780159360441 0.00546326145138477 0.014905502288816475 0.014893017050543146 -0.01630537596465999 0.013398741258812508 0.016064781803986357 -0.00666491502003721 0.0034998808711879624 -19.719385266921005 -0.0015226482352869736 0.043841696347577376 0.03237014218674767 -0.02729650459877707 -0.009862368780901137 0.025658389512334474 0.014779990782881648 -0.0036303536506969098 24.071670345308632 0.04085177485388054 -0.004145157364125643 28.844309629010624 0.014381334581804362 -0.030946299724416843 28.88717386416232 0.049816017816068384 0.008819562459694903 4.096022181266283 1.0813941790517931 13.190466788028509 -69.29857708353684 30.014853545871457 -5.831230272670244 3.9798506981745865 -5.543218774880229 -48.32052624506382 -17.581678367053918 -3.8957561773383786 5.2575306175788485 -0.504438473965101 0.09969156909000398 -8.153018455326837 -0.002696789116623656 0.04376623080743806 44.581993932515665 0.009983076611148228 -0.002043050700941018 44.592731750879615 12.468375716904378 0.004525994751217144 0.041734947809107525 -0.02871897467046469 0.0026029723857094195 0.030041505163714056 0.02167127428285148 -0.032633267542768185 0.025663862486699843 11.064686753686601 0.04078801034637759 -0.02856980725201818 0.03293064881970182 0.02518932140860939 -0.003057448092052561 0.03452861663527645 0.02727276699407616 -0.046508340341418035 4.76211544117816 -0.04421649265951648 0.004074897134415574 -0.04957021218960168 -0.04914540607266227 -0.004686854921295933 0.0026270010423500465 -0.039021602582773346 0.03807155166376927 -5.607451717948846 -0.007376461994601854 -0.027846856528275444 -6.750941687461608 0.03966211232828896 -0.03277596254489611 -6.700565699170976 -0.015615863293302808 0.0460880637654092 0.04060500227733871 -0.04905732166558721 0.03280716362558983 8.033968000242893 3.5093538451035586 -19.203679519182234 -0.0375819440077533 10.431079813905372 0.04349283693102769 -5.661643879041416 -15.634508876442327 3.1821196780638075 0.003716146742337788 -0.021418266340807554 -0.021971378503821384 -0.030389533457152264 4.736971806232357 0.03483319172480473 12.427273017191283 -8.210031403346632 6.882316981046439 0.03348514370001586 46.3962846241252 0.0018619262077647987 -4.278705613507756 -14.740963447821336 -3.8434864631012555 0.021229522204433415 0.00391110996825849 0.004309162561608126 0.008248952672903187 -10.737948220359744 -0.004995975585062372 
